<?xml version="1.0" encoding="UTF-8" standalone="no"?><!-- Generator: Gravit.io --><svg xmlns="http://www.w3.org/2000/svg" xmlns:xlink="http://www.w3.org/1999/xlink" style="isolation:isolate" viewBox="862.916 1000.374 405 410.622" width="405pt" height="410.622pt"><defs><clipPath id="_clipPath_VF3kk30pW2GiRpK35dMl5a5auHCr8du6"><rect x="862.916" y="1000.374" width="405" height="410.622"/></clipPath></defs><g clip-path="url(#_clipPath_VF3kk30pW2GiRpK35dMl5a5auHCr8du6)"><g><g><path d=" M 1267.916 1206.353 C 1267.916 1319.374 1177.251 1410.996 1065.414 1410.996 C 953.575 1410.996 862.916 1319.374 862.916 1206.353 C 862.916 1093.325 953.575 1001.704 1065.414 1001.704 C 1177.251 1001.704 1267.916 1093.325 1267.916 1206.353 Z " fill-rule="evenodd" fill="rgb(233,233,233)"/><path d=" M 1262.65 1206.353 C 1262.65 1316.434 1174.346 1405.674 1065.414 1405.674 C 956.482 1405.674 868.183 1316.434 868.183 1206.353 C 868.183 1096.268 956.482 1007.028 1065.414 1007.028 C 1174.346 1007.028 1262.65 1096.268 1262.65 1206.353 Z " fill-rule="evenodd" fill="rgb(64,60,61)"/><path d=" M 1260.623 1177.947 C 1259.135 1176.187 1257.423 1174.579 1255.349 1173.196 C 1256.223 1176.982 1259.054 1181.425 1261.633 1185.961 C 1261.36 1183.269 1261 1180.607 1260.623 1177.947 L 1260.623 1177.947 Z  M 1167.233 1352.289 C 1152.49 1353.656 1155.797 1361.946 1174.251 1360.181 C 1181.018 1359.534 1192.008 1352.466 1202.315 1349.767 C 1207.508 1344.704 1212.45 1339.38 1217.07 1333.773 C 1210.814 1337.19 1199.021 1342.498 1187.575 1347.993 C 1181.016 1351.139 1172.8 1351.772 1167.233 1352.289 L 1167.233 1352.289 Z  M 1261.994 1190.764 C 1259.86 1188.165 1258.141 1184.202 1255.841 1181.308 C 1255.303 1180.357 1253.382 1176.886 1251.427 1172.605 C 1251.265 1172.174 1251.114 1171.749 1250.873 1171.317 L 1250.862 1171.333 C 1250.294 1170.059 1249.743 1168.734 1249.231 1167.395 L 1249.228 1167.381 C 1248.82 1166.318 1248.443 1165.249 1248.107 1164.193 C 1246.483 1159.054 1241.809 1150.163 1235.22 1142.698 C 1235.181 1142.27 1235.167 1141.864 1235.297 1141.581 L 1234.208 1141.607 C 1230.477 1137.582 1226.2 1134.062 1221.532 1131.926 C 1207.971 1125.726 1196.02 1119.485 1196.02 1119.485 C 1195.606 1123.019 1198.974 1127.535 1200.902 1131.501 C 1201.331 1133.062 1201.606 1134.541 1201.632 1135.806 L 1201.509 1135.694 C 1201.326 1136.096 1201.426 1136.748 1201.488 1137.367 C 1201.342 1138.035 1201.083 1138.594 1200.645 1138.963 C 1198.374 1131.723 1194.334 1126.018 1192.253 1119.562 C 1190.022 1112.644 1188.259 1105.979 1183.074 1100.802 C 1176.593 1094.33 1164.46 1090.792 1155.259 1086.749 C 1151.737 1084.568 1148.505 1082.483 1146.054 1080.793 L 1146.117 1080.7 C 1136.339 1072.793 1123.042 1060.612 1109 1070.472 C 1100.524 1076.428 1092.297 1087.779 1082.374 1092.596 C 1081.285 1093.131 1080.015 1093.699 1078.664 1094.174 L 1078.607 1094.242 L 1078.185 1094.33 C 1077.207 1094.651 1076.202 1094.91 1075.201 1095.053 C 1072.617 1095.758 1070.581 1096.539 1068.815 1097.24 C 1068.609 1097.63 1068.268 1097.642 1068.185 1097.493 C 1064.779 1098.839 1062.291 1099.788 1058.433 1099.086 C 1056.079 1098.661 1050.021 1099.089 1047.5 1099.323 C 1047.5 1099.323 1031.501 1099.334 1051.191 1097.133 C 1050.433 1096.558 1049.717 1095.983 1049.057 1095.403 C 1038.531 1096.247 1029.321 1092.517 1018.823 1094.036 C 1020.003 1095.955 1023.867 1095.487 1024.625 1097.787 C 1016.592 1100.47 1012.125 1088.981 1004.146 1093.72 C 1005.339 1095.936 1004.28 1098.734 1002.545 1100.213 C 1003.217 1093.414 993.982 1087.665 988.05 1092.79 C 990.298 1095.328 990.413 1099.535 989.084 1102.868 L 985.052 1107.425 C 984.107 1107.82 983.062 1107.979 981.922 1107.753 C 985.801 1106.03 988.643 1102.908 988.655 1099.231 C 988.676 1092.732 980.75 1090.986 974.19 1091.17 C 961.174 1091.542 950.931 1097.413 943.181 1104.99 L 943.237 1104.768 L 938.742 1109.667 C 938.742 1109.667 924.701 1115.592 919.667 1131.424 C 919.829 1129.472 920.047 1127.261 920.327 1124.903 C 922.595 1118.258 926.177 1113.296 931.782 1109.293 C 925.132 1110.137 915.635 1112.925 912.695 1121.808 C 911.314 1125.971 909.889 1129.077 908.77 1136.042 L 908.703 1135.962 C 908.703 1135.962 906.027 1149.67 907.76 1157.476 C 909.266 1164.268 911.407 1171.258 912.389 1175.813 C 912.461 1176.414 912.575 1177.04 912.748 1177.688 C 925.151 1171.728 942.338 1170.176 958.586 1167.762 C 951.802 1168.881 942.152 1171.534 932.861 1173.801 C 923.592 1176.068 910.153 1179.597 909.945 1188.039 C 909.822 1193.001 913.511 1197.364 919.764 1197.528 C 919.208 1196.317 919.252 1194.551 919.298 1192.779 C 918.008 1192.886 918.23 1194.382 917.429 1194.936 C 916.949 1185.312 933.33 1184.328 944.085 1182.428 C 945.547 1182.171 946.93 1181.813 948.297 1181.563 C 953.308 1180.677 960.757 1181.102 968.785 1181.222 C 979.821 1181.378 987.598 1179.988 997.756 1183.828 C 1001.018 1185.064 1007.89 1185.485 1011.201 1185.842 C 1022.943 1187.1 1031.678 1185.08 1046.042 1186.312 C 1051.765 1186.8 1057.504 1189.032 1062.882 1191.489 C 1070.337 1194.887 1076.204 1199.103 1085.328 1196.668 C 1088.627 1196.839 1091.945 1196.212 1093.039 1196.839 C 1098.314 1197.313 1097.489 1201.469 1103.569 1200.978 C 1110.645 1200.41 1116.224 1195.927 1124.616 1195.366 C 1131.159 1194.936 1138.051 1196.579 1145.662 1195.801 C 1150.938 1195.261 1156.165 1192.915 1160.627 1191.059 C 1171.885 1186.368 1190.397 1177.164 1191.964 1164.749 C 1193.233 1154.697 1185.719 1149.476 1175.127 1152.234 C 1185.886 1146.589 1195.81 1155.022 1195.703 1165.609 C 1195.673 1168.839 1193.43 1171.768 1191.964 1175.531 C 1190.488 1179.308 1190.455 1181.953 1188.687 1184.155 C 1187.805 1185.263 1186.665 1186.188 1185.467 1186.957 C 1183.403 1187.988 1180.425 1188.853 1176.341 1189.984 C 1170.31 1191.659 1164.633 1193.447 1164.633 1193.447 C 1163.707 1193.63 1163.345 1193.812 1163.283 1193.976 C 1159.569 1195.002 1155.092 1196.518 1152.518 1198.412 C 1147.56 1202.06 1139.597 1204.942 1131.937 1203.577 C 1131.228 1203.448 1130.649 1203.422 1130.179 1203.474 C 1127.662 1203.142 1125.183 1202.791 1122.744 1202.703 C 1122.744 1202.703 1108.81 1203.056 1109.597 1203.528 C 1110.388 1204.011 1110.584 1204 1110.584 1204 C 1115.684 1208.064 1118.119 1214.84 1120.874 1221.248 C 1123.972 1228.458 1126.295 1235.886 1126.956 1245.405 C 1128.937 1237.683 1131.634 1230.62 1135.123 1224.282 C 1139.666 1216.758 1148.705 1204.904 1162.601 1200.281 C 1167.495 1198.732 1171.547 1196.406 1174.656 1193.209 C 1170.372 1199.629 1162.977 1202.354 1156.886 1206.587 C 1144.247 1215.361 1137.481 1228.295 1131.631 1244.543 C 1130.297 1248.245 1128.967 1251.937 1126.956 1255.329 C 1125.014 1258.584 1122.051 1261.517 1120.874 1264.813 C 1120.114 1266.937 1120.417 1269.324 1119.94 1271.287 C 1118.62 1276.711 1116.34 1282.099 1113.177 1286.362 C 1110.492 1289.405 1104.936 1295.668 1103.879 1296.64 L 1103.828 1296.725 C 1096.449 1303.951 1087.698 1309.904 1078.312 1315.284 L 1078.403 1315.476 L 1077.898 1315.819 L 1077.847 1315.714 C 1076.544 1316.558 1075.372 1317.518 1074.283 1318.554 C 1073.162 1319.496 1072.219 1320.435 1071.769 1321.202 C 1067.905 1325.722 1064.934 1331.044 1060.542 1335.122 C 1058.023 1337.464 1055.048 1339.345 1052.101 1341.285 L 1052.122 1341.213 C 1052.122 1341.213 1048.589 1343.627 1045.565 1345.464 C 1036.237 1349.926 1026.604 1357.816 1012.371 1357.987 C 1004.73 1358.071 994.248 1357.484 990.854 1351.51 C 990.854 1351.51 988.843 1350.545 988.984 1354.962 C 989.165 1360.597 998.499 1360.763 1003.346 1363.107 C 1005.8 1364.542 1000.969 1363.35 999.276 1363.593 C 1003.001 1367.63 1005.212 1373.066 1013.305 1373.075 C 1013.305 1373.075 1011.416 1371.294 1010.767 1370.934 C 1010.116 1370.579 1011.18 1370.039 1014.078 1371.117 C 1016.456 1372 1019.558 1372.797 1023.617 1372.774 C 1023.879 1372.774 1024.134 1372.779 1024.407 1372.774 C 1025.047 1372.755 1025.712 1372.713 1026.402 1372.648 C 1026.402 1372.648 1033.591 1372.608 1040.528 1369.581 C 1047.47 1366.552 1055.352 1367.349 1058.98 1364.64 C 1062.608 1361.934 1065.289 1356.678 1067.652 1355.876 C 1070.02 1355.077 1073.34 1353.228 1076.049 1350.138 C 1078.356 1347.511 1081.869 1348.995 1084.742 1346.312 C 1087.357 1343.872 1104.788 1335.138 1104.788 1335.138 C 1109.968 1331.537 1113.145 1327.314 1119.002 1324.341 C 1127.496 1318.353 1107.22 1328.55 1101.321 1330.859 C 1093.988 1333.724 1100.61 1329.852 1100.61 1329.852 L 1112.487 1322.997 C 1116.064 1321.228 1119.648 1319.475 1123.307 1317.794 C 1125.672 1316.778 1129.722 1315.071 1132.885 1313.931 C 1139.115 1312.339 1144.62 1312.804 1149.87 1311.83 C 1155.444 1310.799 1160.335 1308.079 1165.771 1307.085 C 1166.635 1306.931 1168.099 1307.38 1169.047 1307.085 C 1174.948 1305.251 1180.852 1299.45 1186.352 1296.304 C 1199.039 1289.049 1208.434 1282.246 1212.077 1266.538 C 1212.932 1262.85 1213.446 1259.117 1214.414 1255.329 C 1216.479 1247.223 1218.01 1239.796 1217.218 1229.017 C 1216.75 1222.611 1213.084 1215.957 1213.478 1207.879 C 1213.849 1200.286 1219.132 1194.508 1221.428 1187.607 C 1224.171 1179.366 1219.157 1173.586 1211.697 1170.471 L 1211.701 1170.464 C 1211.701 1170.464 1206.18 1167.834 1204.053 1167.675 C 1201.924 1167.514 1205.158 1166.96 1206.576 1166.96 C 1207.665 1166.96 1208.608 1166.203 1209.347 1165.03 C 1210.191 1163.826 1210.663 1162.136 1211.606 1160.863 C 1212.932 1159.075 1216.215 1156.623 1216.284 1154.828 C 1216.374 1152.481 1212.392 1149.256 1210.202 1147.922 C 1206.426 1145.617 1200.33 1144.21 1195.237 1141.882 C 1189.568 1139.3 1185.481 1136.446 1182.61 1133.691 C 1181.018 1129.558 1178.018 1126.983 1178.4 1122.042 C 1178.495 1120.789 1178.952 1119.579 1179.36 1118.319 L 1179.531 1117.854 C 1180.004 1116.244 1180.655 1113.734 1179.531 1110.866 C 1178.41 1107.996 1174.327 1107.161 1174.327 1107.161 L 1174.311 1107.164 C 1172.098 1106.421 1169.473 1105.969 1167.643 1105.217 C 1164.754 1104.041 1162.483 1102.459 1160.227 1101.272 C 1163.032 1102.169 1166.445 1103.616 1171.725 1104.095 C 1174.056 1104.303 1180.594 1105.486 1181.827 1109.681 L 1181.957 1110.153 L 1182.066 1110.571 C 1182.119 1110.81 1182.158 1111.05 1182.195 1111.294 C 1182.237 1111.609 1182.283 1111.915 1182.29 1112.256 L 1182.311 1112.745 C 1182.334 1114.418 1181.987 1116.176 1181.206 1117.924 C 1178.206 1124.643 1181.491 1129.729 1186.382 1132.358 C 1191.009 1136.025 1197.855 1138.04 1204.591 1140.592 C 1209.971 1142.628 1215.964 1145.627 1219.016 1149.083 C 1220.601 1151.85 1221.451 1154.896 1220.408 1157.792 C 1218.74 1161.057 1214.734 1162.478 1213.478 1166.472 C 1215.054 1168.491 1217.92 1168.937 1220.026 1170.349 C 1223.295 1172.548 1225.702 1175.5 1226.441 1179.74 L 1226.483 1180.186 C 1226.562 1180.691 1226.606 1181.196 1226.629 1181.708 C 1226.636 1182.166 1226.618 1182.624 1226.611 1183.082 C 1226.221 1190.64 1220.471 1198.454 1218.796 1202.06 C 1216.905 1206.12 1217.496 1210.305 1217.496 1210.305 C 1217.915 1211.941 1218.339 1213.236 1218.766 1214.244 C 1219.523 1216.478 1220.394 1219.61 1221.055 1223.302 C 1223.402 1228.535 1225.941 1234.624 1227.074 1238.749 C 1229.442 1247.352 1232.753 1262.658 1228.022 1296.601 C 1223.293 1330.539 1178.034 1331.972 1164.316 1337.714 C 1154.87 1341.664 1165.419 1344.882 1183.317 1341.535 C 1191.414 1340.016 1201.878 1333.28 1211.701 1331.259 C 1215.865 1330.401 1218.545 1330.006 1220.063 1329.987 C 1246.703 1296.005 1262.65 1253.076 1262.65 1206.353 C 1262.65 1201.099 1262.388 1195.913 1261.994 1190.764" fill="rgb(173,218,26)"/><path d=" M 1041.409 1071.721 C 1047.956 1062.082 1047.826 1054.979 1047.092 1047.608 C 1046.946 1047.15 1047.25 1047.164 1047.623 1046.827 C 1060.474 1049.464 1061.496 1062.133 1055.98 1071.683 C 1053.362 1076.203 1050.804 1078.585 1046.788 1077.323 C 1043.464 1076.276 1043.01 1073.576 1041.409 1071.721 L 1041.409 1071.721 Z  M 1036.094 1065.569 C 1030.654 1063.994 1029.078 1057.768 1026.884 1055.194 C 1032.813 1048.807 1032.472 1043.195 1032.241 1038.072 C 1032.183 1036.894 1031.972 1035.586 1032.442 1034.424 C 1033.55 1034.517 1035.491 1034.803 1037.078 1035.653 C 1044.295 1039.505 1047.282 1053.285 1043.086 1061.386 C 1041.286 1064.859 1039.462 1066.546 1036.094 1065.569 Z  M 1024.618 1052.635 C 1019.718 1050.151 1016.963 1046.839 1015.686 1043.078 C 1014.936 1040.877 1014.359 1040.61 1014.866 1037.876 C 1015.957 1031.972 1016.323 1025.459 1014.864 1020.77 L 1015.216 1020.597 C 1029.358 1025.632 1037.472 1035.151 1024.618 1052.635 L 1024.618 1052.635 Z  M 1061.772 1057.655 C 1061.872 1057.394 1062.101 1057.436 1062.335 1057.492 C 1066.837 1059.497 1071.572 1062.865 1073.875 1066.511 C 1078.252 1073.429 1079.55 1083.832 1075.903 1092.194 C 1074.283 1092.57 1073.241 1092.947 1071.936 1093.414 C 1071.714 1093.473 1071.482 1093.538 1071.257 1093.62 L 1070.043 1094.069 L 1069.92 1094.12 L 1069.728 1094.183 L 1069.742 1094.188 C 1069.211 1094.421 1068.843 1094.599 1068.843 1094.599 C 1067.124 1095.487 1065.319 1096.015 1063.602 1096.315 C 1052.97 1094.01 1049.761 1081.763 1049.761 1081.763 C 1059.694 1077.353 1065.307 1064.646 1061.772 1057.655 L 1061.772 1057.655 Z  M 1082.172 1074.523 C 1086.086 1076.58 1088.699 1079.4 1090.207 1082.609 C 1089.723 1083.035 1089.227 1083.472 1088.72 1083.914 C 1088.05 1082.651 1087.126 1081.511 1085.909 1080.543 C 1086.459 1082.156 1086.774 1083.806 1086.889 1085.503 C 1086.162 1086.129 1085.446 1086.744 1084.783 1087.309 C 1084.174 1088.49 1082.307 1090.049 1079.92 1091.07 C 1081.813 1085.262 1082.04 1079.094 1082.172 1074.523 L 1082.172 1074.523 Z  M 1009.906 1037.102 C 1007.874 1035.756 1006.291 1034.139 1005.149 1032.356 C 1004.245 1030.939 1002.976 1028.621 1003.249 1026.716 C 1003.437 1025.405 1004.466 1023.647 1004.989 1022.18 C 1006.493 1017.968 1007.081 1014.168 1005.902 1011.146 C 1014.5 1014.969 1015.848 1024.577 1009.906 1037.102 L 1009.906 1037.102 Z  M 993.442 1012.022 C 994.431 1010.938 995.196 1010.4 995.819 1009.295 C 996.843 1007.476 995.821 1006.553 996.366 1005.45 C 1005.603 1006.654 1006.398 1013.209 1002.41 1022.507 C 996.254 1020.403 994.614 1016.245 993.442 1012.022 L 993.442 1012.022 Z  M 989.686 1002.024 C 992.902 1002.926 996.495 1004.772 993.069 1010.29 C 990.965 1008.019 990.251 1005.02 989.686 1002.024 Z " fill="rgb(244,244,244)"/><path d=" M 1041.833 1242.822 C 1036.286 1241.661 1031.703 1243.274 1026.868 1244.113 C 1023.652 1244.662 1019.166 1245.98 1017.213 1243.947 C 1016.391 1242.963 1017.046 1241.955 1017.046 1241.955 C 1018.893 1237.344 1024.266 1234.628 1028.737 1233.329 C 1042.766 1229.248 1056.357 1236.748 1069.895 1237.641 C 1087.341 1238.796 1099.85 1232.684 1108.712 1226.427 C 1111.043 1224.782 1114.127 1220.781 1118.07 1223.408 C 1116.391 1226.927 1111.938 1229.244 1108.247 1231.172 C 1101.785 1234.544 1096.053 1237.496 1088.604 1239.368 C 1101.157 1237.428 1110.079 1232.144 1119.472 1227.287 C 1120.621 1229.727 1121.914 1234.619 1122.764 1238.763 L 1122.883 1238.749 C 1122.883 1238.749 1123.738 1241.07 1123.485 1243.337 C 1123.517 1244.419 1123.302 1245.349 1122.537 1245.861 C 1122.28 1246.193 1121.97 1246.501 1121.583 1246.758 C 1118.154 1249.028 1107.98 1254.05 1099.82 1254.646 C 1099.551 1254.66 1099.292 1254.695 1099.025 1254.723 L 1098.425 1254.894 L 1098.407 1254.779 C 1091.007 1255.647 1086.22 1258.729 1095.682 1257.156 C 1105.154 1255.579 1125.434 1252.094 1118.045 1254.896 L 1118.07 1254.894 C 1108.844 1258.535 1096.741 1262.102 1084.862 1260.933 C 1077.184 1260.181 1069.242 1256.373 1062.414 1252.737 C 1055.593 1249.107 1049.124 1244.335 1041.833 1242.822 Z " fill="rgb(246,131,108)"/><path d=" M 994.85 1335.762 C 995.796 1335.244 996.002 1337.443 996.771 1340.198 C 997.543 1342.977 1001.368 1348.685 1001.368 1348.685 C 1001.912 1349.86 999.822 1351.019 998.235 1351.55 C 996.669 1352.081 996.669 1351.295 996.669 1351.295 C 996.669 1351.295 993.836 1347.205 993.398 1343.393 C 992.953 1339.623 993.914 1336.26 994.85 1335.762 Z  M 1004.266 1335.339 C 1005.353 1334.748 1005.582 1337.254 1006.456 1340.395 C 1007.332 1343.548 1011.708 1350.043 1011.708 1350.043 C 1012.329 1351.375 1009.917 1352.684 1008.096 1353.296 C 1006.298 1353.894 1006.3 1353.001 1006.3 1353.001 C 1006.3 1353.001 1003.061 1348.353 1002.57 1344.017 C 1002.072 1339.729 1003.189 1335.91 1004.266 1335.339 Z  M 1013.631 1330.198 C 1015.021 1329.45 1015.306 1332.628 1016.411 1336.604 C 1017.517 1340.607 1023.098 1348.834 1023.098 1348.834 C 1023.888 1350.524 1020.793 1352.193 1018.462 1352.959 C 1016.157 1353.719 1016.164 1352.595 1016.164 1352.595 C 1016.164 1352.595 1012.044 1346.705 1011.43 1341.217 C 1010.809 1335.788 1012.248 1330.934 1013.631 1330.198 Z  M 1026.942 1324.334 C 1028.353 1323.621 1028.557 1326.694 1029.532 1330.539 C 1030.531 1334.428 1035.855 1342.423 1035.855 1342.423 C 1036.596 1344.057 1033.462 1345.646 1031.11 1346.375 C 1028.788 1347.086 1028.812 1345.997 1028.812 1345.997 C 1028.812 1345.997 1024.877 1340.275 1024.421 1334.972 C 1023.962 1329.716 1025.547 1325.03 1026.942 1324.334 Z  M 1037.196 1316.906 C 1038.603 1315.976 1039.198 1319.059 1040.711 1322.812 C 1042.236 1326.58 1048.939 1333.979 1048.939 1333.979 C 1049.942 1335.55 1046.793 1337.62 1044.37 1338.714 C 1041.983 1339.782 1041.877 1338.646 1041.877 1338.646 C 1041.877 1338.646 1036.976 1333.357 1035.829 1328.024 C 1034.694 1322.756 1035.797 1317.82 1037.196 1316.906 L 1037.196 1316.906 Z  M 1048.496 1307.338 C 1049.749 1306.293 1050.688 1308.999 1052.62 1312.192 C 1054.578 1315.448 1062.034 1321.216 1062.034 1321.216 C 1063.215 1322.511 1060.426 1324.92 1058.195 1326.283 C 1055.991 1327.624 1055.764 1326.596 1055.764 1326.596 C 1055.764 1326.596 1050.312 1322.443 1048.542 1317.729 C 1046.793 1313.059 1047.266 1308.378 1048.496 1307.338 L 1048.496 1307.338 Z  M 1091.449 1279.072 C 1092.418 1278.196 1093.435 1280.033 1095.321 1282.113 C 1097.223 1284.228 1103.9 1287.544 1103.9 1287.544 C 1104.98 1288.346 1102.834 1290.358 1101.094 1291.569 C 1099.357 1292.782 1099.081 1292.069 1099.081 1292.069 C 1099.081 1292.069 1094.162 1289.72 1092.302 1286.516 C 1090.451 1283.351 1090.481 1279.958 1091.449 1279.072 L 1091.449 1279.072 Z  M 1072.027 1314.417 C 1069.837 1315.908 1069.517 1314.936 1069.517 1314.936 C 1069.517 1314.936 1063.616 1311.292 1061.48 1306.8 C 1059.39 1302.374 1059.569 1297.793 1060.778 1296.687 C 1061.999 1295.577 1063.15 1298.129 1065.356 1301.104 C 1067.594 1304.129 1075.662 1309.189 1075.662 1309.189 C 1076.955 1310.362 1074.225 1312.917 1072.027 1314.417 Z  M 1075.613 1287.598 C 1076.799 1286.476 1078.069 1288.855 1080.439 1291.559 C 1082.837 1294.327 1091.252 1298.73 1091.252 1298.73 C 1092.622 1299.772 1089.943 1302.378 1087.772 1303.942 C 1085.601 1305.51 1085.238 1304.585 1085.238 1304.585 C 1085.238 1304.585 1079.084 1301.436 1076.741 1297.262 C 1074.42 1293.144 1074.415 1288.722 1075.613 1287.598 Z  M 1099.042 1204.077 C 1099.042 1204.077 1100.406 1204.308 1099.79 1206.257 C 1099.176 1208.202 1099.058 1214.234 1100.923 1216.828 C 1102.8 1219.434 1099.639 1218.446 1097.172 1215.814 C 1094.7 1213.194 1092.953 1208.37 1093.486 1205.089 C 1093.486 1205.089 1093.344 1203.71 1099.042 1204.077 Z  M 1090.323 1220.04 C 1093.314 1223.412 1088.734 1222.512 1084.899 1219.189 C 1081.065 1215.873 1077.925 1209.401 1078.215 1204.731 C 1078.215 1204.731 1077.823 1202.819 1085.872 1202.49 C 1085.872 1202.49 1087.828 1202.618 1087.223 1205.437 C 1086.649 1208.249 1087.327 1216.693 1090.323 1220.04 L 1090.323 1220.04 Z  M 1073.848 1222.192 C 1076.778 1226.497 1071.688 1224.77 1067.796 1220.381 C 1063.901 1215.989 1061.271 1208.085 1062.272 1202.756 C 1062.272 1202.756 1062.101 1200.52 1071.327 1201.375 C 1071.327 1201.375 1073.537 1201.819 1072.464 1204.942 C 1071.366 1208.094 1070.924 1217.883 1073.848 1222.192 L 1073.848 1222.192 Z  M 1048.823 1217.85 C 1044.886 1212.83 1042.525 1203.969 1043.957 1198.164 C 1043.957 1198.164 1043.925 1195.67 1053.89 1197.065 C 1053.89 1197.065 1056.246 1197.668 1054.872 1201.078 C 1053.496 1204.481 1052.379 1215.251 1055.273 1220.147 C 1058.164 1225.037 1052.759 1222.893 1048.823 1217.85 L 1048.823 1217.85 Z  M 1029.548 1215.197 C 1025.545 1210.125 1023.114 1201.125 1024.532 1195.177 C 1024.532 1195.177 1024.479 1192.655 1034.557 1193.938 C 1034.557 1193.938 1036.946 1194.522 1035.572 1198.012 C 1034.203 1201.499 1033.13 1212.502 1036.07 1217.445 C 1039.027 1222.396 1033.55 1220.28 1029.548 1215.197 Z  M 1010.9 1220.161 C 1006.06 1213.587 1002.816 1201.915 1004.097 1194.177 C 1004.097 1194.177 1003.909 1190.869 1015.445 1192.461 C 1015.445 1192.461 1018.214 1193.19 1016.845 1197.766 C 1015.469 1202.315 1014.841 1216.62 1018.471 1223.034 C 1022.099 1229.437 1015.744 1226.726 1010.9 1220.161 Z  M 992.216 1216.041 C 987.397 1210.364 984.22 1199.998 985.56 1192.982 C 985.56 1192.982 985.379 1190.014 996.959 1190.909 C 996.959 1190.909 999.73 1191.447 998.312 1195.605 C 996.912 1199.758 996.187 1212.666 999.79 1218.27 C 1003.407 1223.861 997.042 1221.725 992.216 1216.041 L 992.216 1216.041 Z  M 974.079 1209.457 C 970.567 1204.514 968.63 1195.822 970.115 1190.136 C 970.115 1190.136 970.15 1187.698 979.35 1189.126 C 979.35 1189.126 981.533 1189.731 980.154 1193.05 C 978.787 1196.385 977.45 1206.94 980.001 1211.752 C 982.555 1216.56 977.594 1214.424 974.079 1209.457 L 974.079 1209.457 Z  M 959.717 1205.834 C 956.482 1201.899 954.437 1194.955 955.468 1190.379 C 955.468 1190.379 955.386 1188.425 963.34 1189.458 C 963.34 1189.458 965.252 1189.914 964.205 1192.604 C 963.199 1195.282 962.504 1203.764 964.911 1207.599 C 967.307 1211.432 962.958 1209.766 959.717 1205.834 L 959.717 1205.834 Z  M 943.007 1208.548 C 939.115 1204.156 936.485 1196.254 937.484 1190.921 C 937.484 1190.921 937.312 1188.689 946.538 1189.54 C 946.538 1189.54 948.751 1189.984 947.676 1193.111 C 946.578 1196.261 946.135 1206.049 949.061 1210.364 C 951.99 1214.667 946.9 1212.942 943.007 1208.548 L 943.007 1208.548 Z  M 930.855 1208.38 C 927.018 1205.061 923.879 1198.587 924.168 1193.92 C 924.168 1193.92 923.777 1192.008 931.821 1191.68 C 931.821 1191.68 933.781 1191.804 933.179 1194.625 C 932.6 1197.439 933.279 1205.883 936.274 1209.228 C 939.265 1212.598 934.685 1211.705 930.855 1208.38" fill="rgb(244,244,244)"/><path d=" M 1106.21 1102.758 C 1109.192 1101.122 1112.709 1090.518 1119.931 1094.922 C 1125.299 1098.194 1127.857 1099.023 1127.857 1099.023 C 1127.857 1099.023 1124.108 1100.087 1122.403 1102.929 C 1120.695 1105.771 1118.652 1107.958 1112.686 1107.066 C 1106.421 1106.126 1105.274 1107.117 1102.121 1107.636 C 1102.121 1107.636 1103.224 1104.397 1106.21 1102.758 Z " fill="rgb(244,244,244)"/><path d=" M 1088.72 1083.914 C 1088.05 1082.651 1087.126 1081.511 1085.909 1080.543 C 1086.459 1082.156 1086.774 1083.806 1086.889 1085.503 C 1086.162 1086.129 1085.446 1086.744 1084.783 1087.309 C 1084.174 1088.49 1082.307 1090.049 1079.92 1091.07 C 1081.813 1085.262 1082.04 1079.094 1082.172 1074.523 C 1086.086 1076.58 1088.699 1079.4 1090.207 1082.609 C 1089.723 1083.035 1089.227 1083.472 1088.72 1083.914 L 1088.72 1083.914 Z  M 1075.903 1092.194 C 1074.283 1092.57 1073.241 1092.947 1071.936 1093.414 C 1071.714 1093.473 1071.482 1093.538 1071.257 1093.62 L 1070.043 1094.069 L 1069.92 1094.12 L 1069.728 1094.183 L 1069.742 1094.188 C 1069.211 1094.421 1068.843 1094.599 1068.843 1094.599 C 1067.124 1095.487 1065.319 1096.015 1063.602 1096.315 C 1052.97 1094.01 1049.761 1081.763 1049.761 1081.763 C 1059.694 1077.353 1065.307 1064.646 1061.772 1057.655 C 1061.872 1057.394 1062.101 1057.436 1062.335 1057.492 C 1066.837 1059.497 1071.572 1062.865 1073.875 1066.511 C 1078.252 1073.429 1079.55 1083.832 1075.903 1092.194 L 1075.903 1092.194 Z  M 1046.788 1077.323 C 1043.464 1076.276 1043.01 1073.576 1041.409 1071.721 C 1047.956 1062.082 1047.826 1054.979 1047.092 1047.608 C 1046.946 1047.15 1047.25 1047.164 1047.623 1046.827 C 1060.474 1049.464 1061.496 1062.133 1055.98 1071.683 C 1053.362 1076.203 1050.804 1078.585 1046.788 1077.323 L 1046.788 1077.323 Z  M 1036.094 1065.569 C 1030.654 1063.994 1029.078 1057.768 1026.884 1055.194 C 1032.813 1048.807 1032.472 1043.195 1032.241 1038.072 C 1032.183 1036.894 1031.972 1035.586 1032.442 1034.424 C 1033.55 1034.517 1035.491 1034.803 1037.078 1035.653 C 1044.295 1039.505 1047.282 1053.285 1043.086 1061.386 C 1041.286 1064.859 1039.462 1066.546 1036.094 1065.569 Z  M 1024.618 1052.635 C 1019.718 1050.151 1016.963 1046.839 1015.686 1043.078 C 1014.936 1040.877 1014.359 1040.61 1014.866 1037.876 C 1015.957 1031.972 1016.323 1025.459 1014.864 1020.77 L 1015.216 1020.597 C 1029.358 1025.632 1037.472 1035.151 1024.618 1052.635 L 1024.618 1052.635 Z  M 931.821 1191.68 C 931.821 1191.68 933.781 1191.804 933.179 1194.625 C 932.6 1197.439 933.279 1205.883 936.274 1209.228 C 939.265 1212.598 934.685 1211.705 930.855 1208.38 C 927.018 1205.061 923.879 1198.587 924.168 1193.92 C 924.168 1193.92 923.777 1192.008 931.821 1191.68 L 931.821 1191.68 Z  M 937.484 1190.921 C 937.484 1190.921 937.312 1188.689 946.538 1189.54 C 946.538 1189.54 948.751 1189.984 947.676 1193.111 C 946.578 1196.261 946.135 1206.049 949.061 1210.364 C 951.99 1214.667 946.9 1212.942 943.007 1208.548 C 939.115 1204.156 936.485 1196.254 937.484 1190.921 L 937.484 1190.921 Z  M 955.468 1190.379 C 955.468 1190.379 955.386 1188.425 963.34 1189.458 C 963.34 1189.458 965.252 1189.914 964.205 1192.604 C 963.199 1195.282 962.504 1203.764 964.911 1207.599 C 967.307 1211.432 962.958 1209.766 959.717 1205.834 C 956.482 1201.899 954.437 1194.955 955.468 1190.379 L 955.468 1190.379 Z  M 970.115 1190.136 C 970.115 1190.136 970.15 1187.698 979.35 1189.126 C 979.35 1189.126 981.533 1189.731 980.154 1193.05 C 978.787 1196.385 977.45 1206.94 980.001 1211.752 C 982.555 1216.56 977.594 1214.424 974.079 1209.457 C 970.567 1204.514 968.63 1195.822 970.115 1190.136 L 970.115 1190.136 Z  M 985.56 1192.982 C 985.56 1192.982 985.379 1190.014 996.959 1190.909 C 996.959 1190.909 999.73 1191.447 998.312 1195.605 C 996.912 1199.758 996.187 1212.666 999.79 1218.27 C 1003.407 1223.861 997.042 1221.725 992.216 1216.041 C 987.397 1210.364 984.22 1199.998 985.56 1192.982 L 985.56 1192.982 Z  M 1004.097 1194.177 C 1004.097 1194.177 1003.909 1190.869 1015.445 1192.461 C 1015.445 1192.461 1018.214 1193.19 1016.845 1197.766 C 1015.469 1202.315 1014.841 1216.62 1018.471 1223.034 C 1022.099 1229.437 1015.744 1226.726 1010.9 1220.161 C 1006.06 1213.587 1002.816 1201.915 1004.097 1194.177 Z  M 1024.532 1195.177 C 1024.532 1195.177 1024.479 1192.655 1034.557 1193.938 C 1034.557 1193.938 1036.946 1194.522 1035.572 1198.012 C 1034.203 1201.499 1033.13 1212.502 1036.07 1217.445 C 1039.027 1222.396 1033.55 1220.28 1029.548 1215.197 C 1025.545 1210.125 1023.114 1201.125 1024.532 1195.177 Z  M 1043.957 1198.164 C 1043.957 1198.164 1043.925 1195.67 1053.89 1197.065 C 1053.89 1197.065 1056.246 1197.668 1054.872 1201.078 C 1053.496 1204.481 1052.379 1215.251 1055.273 1220.147 C 1058.164 1225.037 1052.759 1222.893 1048.823 1217.85 C 1044.886 1212.83 1042.525 1203.969 1043.957 1198.164 L 1043.957 1198.164 Z  M 1062.272 1202.756 C 1062.272 1202.756 1062.101 1200.52 1071.327 1201.375 C 1071.327 1201.375 1073.537 1201.819 1072.464 1204.942 C 1071.366 1208.094 1070.924 1217.883 1073.848 1222.192 C 1076.778 1226.497 1071.688 1224.77 1067.796 1220.381 C 1063.901 1215.989 1061.271 1208.085 1062.272 1202.756 L 1062.272 1202.756 Z  M 1085.872 1202.49 C 1085.872 1202.49 1087.828 1202.618 1087.223 1205.437 C 1086.649 1208.249 1087.327 1216.693 1090.323 1220.04 C 1093.314 1223.412 1088.734 1222.512 1084.899 1219.189 C 1081.065 1215.873 1077.925 1209.401 1078.215 1204.731 C 1078.215 1204.731 1077.823 1202.819 1085.872 1202.49 L 1085.872 1202.49 Z  M 1108.712 1226.427 C 1111.043 1224.782 1114.127 1220.781 1118.07 1223.408 C 1116.391 1226.927 1111.938 1229.244 1108.247 1231.172 C 1101.785 1234.544 1096.053 1237.496 1088.604 1239.368 C 1101.157 1237.428 1110.079 1232.144 1119.472 1227.287 C 1120.621 1229.727 1121.914 1234.619 1122.764 1238.763 L 1122.883 1238.749 C 1122.883 1238.749 1123.738 1241.07 1123.485 1243.337 C 1123.517 1244.419 1123.302 1245.349 1122.537 1245.861 C 1122.28 1246.193 1121.97 1246.501 1121.583 1246.758 C 1118.154 1249.028 1107.98 1254.05 1099.82 1254.646 C 1099.551 1254.66 1099.292 1254.695 1099.025 1254.723 L 1098.425 1254.894 L 1098.407 1254.779 C 1091.007 1255.647 1086.22 1258.729 1095.682 1257.156 C 1105.154 1255.579 1125.434 1252.094 1118.045 1254.896 L 1118.07 1254.894 C 1108.844 1258.535 1096.741 1262.102 1084.862 1260.933 C 1077.184 1260.181 1069.242 1256.373 1062.414 1252.737 C 1055.593 1249.107 1049.124 1244.335 1041.833 1242.822 C 1036.286 1241.661 1031.703 1243.274 1026.868 1244.113 C 1023.652 1244.662 1019.166 1245.98 1017.213 1243.947 C 1016.391 1242.963 1017.046 1241.955 1017.046 1241.955 C 1018.893 1237.344 1024.266 1234.628 1028.737 1233.329 C 1042.766 1229.248 1056.357 1236.748 1069.895 1237.641 C 1087.341 1238.796 1099.85 1232.684 1108.712 1226.427 Z  M 1099.042 1204.077 C 1099.042 1204.077 1100.406 1204.308 1099.79 1206.257 C 1099.176 1208.202 1099.058 1214.234 1100.923 1216.828 C 1102.8 1219.434 1099.639 1218.446 1097.172 1215.814 C 1094.7 1213.194 1092.953 1208.37 1093.486 1205.089 C 1093.486 1205.089 1093.344 1203.71 1099.042 1204.077 Z  M 1101.094 1291.569 C 1099.357 1292.782 1099.081 1292.069 1099.081 1292.069 C 1099.081 1292.069 1094.162 1289.72 1092.302 1286.516 C 1090.451 1283.351 1090.481 1279.958 1091.449 1279.072 C 1092.418 1278.196 1093.435 1280.033 1095.321 1282.113 C 1097.223 1284.228 1103.9 1287.544 1103.9 1287.544 C 1104.98 1288.346 1102.834 1290.358 1101.094 1291.569 L 1101.094 1291.569 Z  M 1087.772 1303.942 C 1085.601 1305.51 1085.238 1304.585 1085.238 1304.585 C 1085.238 1304.585 1079.084 1301.436 1076.741 1297.262 C 1074.42 1293.144 1074.415 1288.722 1075.613 1287.598 C 1076.799 1286.476 1078.069 1288.855 1080.439 1291.559 C 1082.837 1294.327 1091.252 1298.73 1091.252 1298.73 C 1092.622 1299.772 1089.943 1302.378 1087.772 1303.942 Z  M 1072.027 1314.417 C 1069.837 1315.908 1069.517 1314.936 1069.517 1314.936 C 1069.517 1314.936 1063.616 1311.292 1061.48 1306.8 C 1059.39 1302.374 1059.569 1297.793 1060.778 1296.687 C 1061.999 1295.577 1063.15 1298.129 1065.356 1301.104 C 1067.594 1304.129 1075.662 1309.189 1075.662 1309.189 C 1076.955 1310.362 1074.225 1312.917 1072.027 1314.417 Z  M 1058.195 1326.283 C 1055.991 1327.624 1055.764 1326.596 1055.764 1326.596 C 1055.764 1326.596 1050.312 1322.443 1048.542 1317.729 C 1046.793 1313.059 1047.266 1308.378 1048.496 1307.338 C 1049.749 1306.293 1050.688 1308.999 1052.62 1312.192 C 1054.578 1315.448 1062.034 1321.216 1062.034 1321.216 C 1063.215 1322.511 1060.426 1324.92 1058.195 1326.283 L 1058.195 1326.283 Z  M 1044.37 1338.714 C 1041.983 1339.782 1041.877 1338.646 1041.877 1338.646 C 1041.877 1338.646 1036.976 1333.357 1035.829 1328.024 C 1034.694 1322.756 1035.797 1317.82 1037.196 1316.906 C 1038.603 1315.976 1039.198 1319.059 1040.711 1322.812 C 1042.236 1326.58 1048.939 1333.979 1048.939 1333.979 C 1049.942 1335.55 1046.793 1337.62 1044.37 1338.714 L 1044.37 1338.714 Z  M 1031.11 1346.375 C 1028.788 1347.086 1028.812 1345.997 1028.812 1345.997 C 1028.812 1345.997 1024.877 1340.275 1024.421 1334.972 C 1023.962 1329.716 1025.547 1325.03 1026.942 1324.334 C 1028.353 1323.621 1028.557 1326.694 1029.532 1330.539 C 1030.531 1334.428 1035.855 1342.423 1035.855 1342.423 C 1036.596 1344.057 1033.462 1345.646 1031.11 1346.375 Z  M 1018.462 1352.959 C 1016.157 1353.719 1016.164 1352.595 1016.164 1352.595 C 1016.164 1352.595 1012.044 1346.705 1011.43 1341.217 C 1010.809 1335.788 1012.248 1330.934 1013.631 1330.198 C 1015.021 1329.45 1015.306 1332.628 1016.411 1336.604 C 1017.517 1340.607 1023.098 1348.834 1023.098 1348.834 C 1023.888 1350.524 1020.793 1352.193 1018.462 1352.959 Z  M 1008.096 1353.296 C 1006.298 1353.894 1006.3 1353.001 1006.3 1353.001 C 1006.3 1353.001 1003.061 1348.353 1002.57 1344.017 C 1002.072 1339.729 1003.189 1335.91 1004.266 1335.339 C 1005.353 1334.748 1005.582 1337.254 1006.456 1340.395 C 1007.332 1343.548 1011.708 1350.043 1011.708 1350.043 C 1012.329 1351.375 1009.917 1352.684 1008.096 1353.296 Z  M 998.235 1351.55 C 996.669 1352.081 996.669 1351.295 996.669 1351.295 C 996.669 1351.295 993.836 1347.205 993.398 1343.393 C 992.953 1339.623 993.914 1336.26 994.85 1335.762 C 995.796 1335.244 996.002 1337.443 996.771 1340.198 C 997.543 1342.977 1001.368 1348.685 1001.368 1348.685 C 1001.912 1349.86 999.822 1351.019 998.235 1351.55 Z  M 1009.906 1037.102 C 1007.874 1035.756 1006.291 1034.139 1005.149 1032.356 C 1004.245 1030.939 1002.976 1028.621 1003.249 1026.716 C 1003.437 1025.405 1004.466 1023.647 1004.989 1022.18 C 1006.493 1017.968 1007.081 1014.168 1005.902 1011.146 C 1014.5 1014.969 1015.848 1024.577 1009.906 1037.102 L 1009.906 1037.102 Z  M 993.442 1012.022 C 994.431 1010.938 995.196 1010.4 995.819 1009.295 C 996.843 1007.476 995.821 1006.553 996.366 1005.45 C 1005.603 1006.654 1006.398 1013.209 1002.41 1022.507 C 996.254 1020.403 994.614 1016.245 993.442 1012.022 L 993.442 1012.022 Z  M 989.686 1002.024 C 992.902 1002.926 996.495 1004.772 993.069 1010.29 C 990.965 1008.019 990.251 1005.02 989.686 1002.024 Z  M 1261.633 1185.961 C 1259.054 1181.425 1256.223 1176.982 1255.349 1173.196 C 1257.423 1174.579 1259.135 1176.187 1260.623 1177.947 C 1260.312 1175.748 1259.946 1173.567 1259.564 1171.389 C 1257.314 1169.583 1254.784 1167.996 1251.805 1166.741 C 1247.011 1145.122 1236.696 1131.47 1215.506 1123.666 C 1208.402 1121.051 1201.674 1118.022 1194.667 1114.939 C 1195.073 1091.928 1168.609 1092.412 1152.12 1080.567 C 1144.949 1075.402 1136.817 1065.873 1128.612 1064.111 C 1112.746 1060.698 1102.983 1071.877 1093.613 1079.683 C 1091.312 1077.147 1087.867 1074.67 1082.867 1072.415 C 1082.867 1072.415 1073.924 1059.525 1069.754 1057.102 C 1069.478 1056.94 1069.29 1056.793 1069.17 1056.65 C 1066.867 1055.557 1063.978 1054.942 1061.939 1053.579 C 1059.923 1052.24 1059.541 1049.073 1057.525 1047.54 C 1056.538 1046.792 1055.007 1045.981 1053.667 1045.439 C 1052.05 1044.782 1049.279 1044.904 1047.65 1044.004 C 1045.646 1042.894 1045.486 1039.283 1044.034 1037.49 C 1042.433 1035.511 1040.373 1033.891 1037.041 1032.76 C 1035.69 1032.306 1033.652 1032.276 1032.431 1031.615 C 1031.068 1030.871 1030.735 1028.541 1029.68 1027.113 C 1027.229 1023.78 1023.089 1021.198 1018.367 1019.513 C 1017.35 1019.151 1015.985 1019.151 1015.241 1018.646 C 1014.308 1018.015 1014.271 1016.372 1013.634 1015.224 C 1012.649 1013.453 1011.335 1011.653 1009.217 1010.552 C 1008.312 1010.075 1006.919 1010.12 1006.032 1009.61 C 1004.989 1009.007 1004.709 1007.535 1003.831 1006.672 C 1002.056 1004.924 999.948 1003.597 995.566 1004.73 C 994.014 1002.699 991.963 1001.068 988.625 1000.374 L 988.523 1000.554 C 988.945 1004.583 989.517 1008.654 992.55 1011.443 C 991.78 1016.072 993.935 1019.473 997.417 1022.212 C 998.256 1022.874 999.646 1023.222 1000.365 1024.094 C 1001.317 1025.253 1000.923 1027.609 1001.338 1029.062 C 1002.626 1033.55 1005.371 1037.673 1009.936 1041.04 C 1010.603 1041.536 1011.877 1041.774 1012.457 1042.436 C 1013.731 1043.897 1013.36 1046.348 1014.322 1048.033 C 1015.332 1049.807 1017.053 1051.948 1019.178 1053.598 C 1020.343 1054.505 1022.081 1054.989 1023.17 1056.068 C 1024.053 1056.94 1024.296 1058.509 1024.926 1059.813 C 1026.629 1063.342 1031.138 1067.429 1033.302 1071.118 C 1033.587 1071.604 1033.811 1072.123 1033.999 1072.646 C 1034.9 1074.523 1037.081 1078.501 1040.053 1080.338 C 1040.053 1080.338 1040.364 1085.86 1045.813 1092.157 C 1034.773 1091.554 1024.122 1085.248 1015.934 1091.512 C 1013.571 1088.906 1005.988 1086.861 1002.742 1090.518 C 1000.348 1086.309 987.64 1083.624 985.168 1090.275 C 967.101 1082.084 945.299 1093.762 938.29 1105.486 C 936.99 1106.112 935.774 1106.773 934.625 1107.451 C 929.68 1105.948 922.982 1105.416 915.733 1110.698 C 908.587 1115.907 901.118 1139.272 902.403 1155.45 C 902.542 1157.182 905.795 1161.274 906.963 1169.47 C 908.126 1177.604 909.009 1180.273 909.009 1180.273 C 907.42 1183.075 905.524 1184.328 905.267 1187.607 C 904.706 1194.702 910.71 1198.556 916.333 1202.191 C 918.337 1203.135 920.6 1203.81 923.061 1203.902 C 924.546 1206.274 930.269 1214.314 939.729 1214.314 C 939.963 1214.314 940.201 1214.297 940.433 1214.283 C 944.045 1217.352 947.815 1218.177 945.213 1214.393 C 944.997 1214.082 944.814 1213.732 944.643 1213.369 C 946.383 1214.414 948.487 1215.431 950.363 1215.615 C 950.4 1215.62 951.286 1215.845 952.018 1215.845 C 952.282 1215.845 953.056 1215.845 953.329 1215.244 C 953.602 1214.636 953.051 1213.986 952.868 1213.776 C 952.11 1212.895 951.258 1210.6 950.616 1208.457 C 951.311 1209.742 952.064 1210.96 952.91 1212.012 C 957.411 1217.595 963.713 1220.238 960.194 1214.678 C 959.066 1212.9 958.422 1210.474 958.107 1207.898 C 959.851 1210.067 962.854 1212.593 967.736 1213.601 C 971.772 1217.478 976.788 1219.065 973.783 1214.942 C 973.013 1213.888 972.513 1212.528 972.214 1211.044 C 974.647 1213.993 978.762 1217.782 983.806 1217.782 L 984.174 1217.775 L 984.276 1217.77 C 987.737 1220.133 990.636 1220.528 988.046 1217.118 C 986.924 1215.632 986.313 1213.575 986.037 1211.404 C 988.324 1216.116 992.735 1222.604 1000.33 1224.686 C 1000.385 1224.709 1001.694 1225.072 1002.774 1225.072 C 1003.615 1225.072 1004.148 1224.854 1004.401 1224.389 C 1004.769 1223.718 1004.285 1222.942 1004.125 1222.688 C 1003.636 1221.891 1003.18 1220.902 1002.786 1219.925 C 1006.194 1221.945 1008.715 1222.117 1006.06 1218.827 C 1004.69 1217.13 1003.96 1214.737 1003.659 1212.264 C 1005.513 1217.268 1009.287 1224.296 1016.745 1228.902 C 1016.798 1228.928 1018.142 1229.564 1019.63 1229.564 C 1020.348 1229.564 1020.99 1229.414 1021.543 1229.134 C 1022.018 1228.884 1022.329 1228.479 1022.456 1227.965 C 1022.846 1226.397 1021.372 1224.167 1021.24 1223.985 C 1020.626 1222.765 1019.502 1220.187 1018.948 1217.929 L 1019.004 1217.976 C 1024.393 1222.37 1031.39 1224.406 1027.074 1220.021 C 1024.453 1217.357 1023.443 1212.79 1023.353 1209.062 C 1024.928 1213.526 1028.756 1221.257 1036.684 1222.791 C 1036.738 1222.795 1037.966 1223.034 1038.874 1223.034 C 1039.377 1223.034 1039.984 1222.978 1040.197 1222.487 C 1040.287 1222.281 1040.324 1221.945 1039.965 1221.538 C 1039.372 1220.862 1038.531 1218.831 1038.084 1217.188 C 1038.459 1217.478 1038.825 1217.787 1039.217 1218.041 C 1043.063 1220.591 1047.602 1221.923 1048.195 1221.098 C 1049.423 1222.117 1051.348 1223.457 1053.962 1224.618 C 1054.207 1225.184 1054.448 1225.749 1054.645 1226.317 C 1054.645 1226.317 1055.864 1229.746 1056.334 1231.602 C 1050.113 1229.973 1039.467 1226.818 1031.546 1228.584 C 1025.288 1229.977 1008.979 1239.09 1012.922 1245.496 C 1013.186 1245.924 1013.522 1246.221 1013.909 1246.464 L 1014.152 1246.557 C 1015.712 1247.396 1018.457 1247.887 1021.346 1247.864 L 1022.396 1247.833 C 1024.076 1247.74 1028.473 1247.102 1029.965 1246.613 C 1034.326 1245.181 1038.223 1246.041 1038.223 1246.041 L 1038.165 1246.08 C 1041.265 1246.447 1044.536 1247.546 1047.914 1249.289 C 1051.543 1251.154 1056.48 1254.235 1057.738 1255.756 C 1060.004 1258.51 1056.531 1264.965 1055.236 1268.94 C 1055.173 1269.174 1055.095 1269.419 1055.018 1269.663 L 1054.928 1269.992 L 1054.914 1269.983 C 1054.731 1270.541 1054.506 1271.126 1054.263 1271.724 C 1054.043 1271.443 1053.846 1271.172 1053.7 1270.92 C 1052.46 1268.809 1051.791 1266.963 1051.151 1267.811 C 1050.509 1268.662 1050.479 1272.03 1051.698 1275.211 C 1051.823 1275.538 1051.976 1275.849 1052.141 1276.16 C 1050.736 1278.759 1049.031 1281.482 1047.233 1284.088 C 1045.836 1282.751 1044.423 1281.243 1043.737 1280.042 C 1042.141 1277.277 1041.29 1274.851 1040.475 1275.968 C 1039.65 1277.076 1039.629 1281.552 1041.193 1285.752 C 1041.703 1287.124 1042.484 1288.365 1043.299 1289.449 C 1042.06 1291.029 1040.85 1292.49 1039.745 1293.728 C 1039.249 1294.282 1038.665 1294.902 1038.044 1295.551 C 1036.339 1293.77 1034.18 1291.337 1033.306 1289.573 C 1031.786 1286.49 1031.003 1283.863 1030.139 1284.983 C 1029.277 1286.109 1029.108 1290.842 1030.547 1295.418 C 1031.138 1297.293 1032.157 1299.003 1033.165 1300.396 C 1031.316 1302.173 1029.307 1304.054 1027.245 1305.956 C 1025.994 1304.278 1024.762 1302.437 1024.196 1301.025 C 1022.841 1297.692 1022.199 1294.867 1021.282 1295.949 C 1020.38 1297.04 1019.984 1301.958 1021.201 1306.859 C 1021.499 1308.067 1021.956 1309.228 1022.477 1310.304 C 1020.434 1312.148 1018.457 1313.915 1016.643 1315.518 C 1016.11 1314.347 1015.665 1313.239 1015.42 1312.325 C 1014.354 1308.357 1013.956 1305.08 1012.908 1306.083 C 1011.859 1307.064 1010.967 1312.351 1011.734 1317.97 C 1011.805 1318.507 1011.91 1319.042 1012.028 1319.577 L 1011.516 1320.022 C 1010.332 1321.057 1009.041 1322.305 1007.707 1323.677 C 1007.376 1322.62 1007.118 1321.634 1006.982 1320.814 C 1006.307 1316.677 1006.203 1313.37 1005.13 1314.16 C 1004.06 1314.936 1002.779 1320.038 1003.036 1325.745 C 1003.075 1326.643 1003.184 1327.55 1003.33 1328.438 C 1001.764 1330.219 1000.214 1332.063 998.754 1333.855 C 997.909 1331.663 997.144 1329.391 996.848 1327.753 C 996.074 1323.422 995.914 1319.947 994.818 1320.8 C 993.815 1321.569 992.714 1326.203 992.835 1331.595 C 991.743 1332.402 990.328 1336.16 990.281 1340.42 C 990.261 1341.869 990.515 1343.354 990.863 1344.695 C 990.156 1345.702 988.917 1346.399 988.05 1347.633 C 983.579 1353.955 985.402 1361.485 995.066 1363.161 C 998.027 1372.384 1005.531 1376.859 1017.046 1376.962 C 1018.594 1376.978 1020.207 1376.432 1021.722 1376.527 C 1023.432 1376.644 1024.84 1377.345 1026.402 1377.394 C 1034.794 1377.649 1039.196 1374.957 1045.572 1373.075 C 1050.333 1371.682 1055.243 1371.231 1058.204 1370.06 C 1062.738 1368.265 1064.893 1363.336 1068.491 1361.002 C 1069.83 1360.134 1072.358 1359.725 1074.573 1358.417 C 1076.443 1357.306 1078.06 1355.287 1079.716 1354.537 C 1081.162 1353.871 1083.574 1354.004 1085.328 1353.24 C 1088.263 1351.952 1091.509 1349.173 1095.152 1347.196 C 1102.777 1343.075 1108.984 1340.025 1117.132 1336.419 C 1121.024 1334.694 1125.144 1330.642 1127.421 1330.38 C 1130.121 1330.064 1133.265 1332.343 1135.371 1332.102 C 1139.662 1337.258 1141.158 1344.464 1140.978 1353.726 C 1141.233 1353.752 1141.045 1356.023 1141.045 1356.023 C 1141.045 1356.023 1142.544 1375.91 1111.812 1386.647 C 1102.255 1389.985 1084.688 1398.756 1071.64 1405.513 C 1122.359 1403.921 1168.234 1382.999 1202.315 1349.767 C 1192.008 1352.466 1181.018 1359.534 1174.251 1360.181 C 1155.797 1361.946 1152.49 1353.656 1167.233 1352.289 C 1172.8 1351.772 1181.016 1351.139 1187.575 1347.993 C 1199.021 1342.498 1210.814 1337.19 1217.07 1333.773 C 1218.091 1332.532 1219.069 1331.254 1220.063 1329.987 C 1218.545 1330.006 1215.865 1330.401 1211.701 1331.259 C 1201.878 1333.28 1191.414 1340.016 1183.317 1341.535 C 1165.419 1344.882 1154.87 1341.664 1164.316 1337.714 C 1178.034 1331.972 1223.293 1330.539 1228.022 1296.601 C 1232.753 1262.658 1229.442 1247.352 1227.074 1238.749 C 1225.941 1234.624 1223.402 1228.535 1221.055 1223.302 C 1220.394 1219.61 1219.523 1216.478 1218.766 1214.244 C 1218.339 1213.236 1217.915 1211.941 1217.496 1210.305 C 1217.496 1210.305 1216.905 1206.12 1218.796 1202.06 C 1220.471 1198.454 1226.221 1190.64 1226.611 1183.082 C 1226.618 1182.624 1226.636 1182.166 1226.629 1181.708 C 1226.606 1181.196 1226.562 1180.691 1226.483 1180.186 L 1226.441 1179.74 C 1225.702 1175.5 1223.295 1172.548 1220.026 1170.349 C 1217.92 1168.937 1215.054 1168.491 1213.478 1166.472 C 1214.734 1162.478 1218.74 1161.057 1220.408 1157.792 C 1221.451 1154.896 1220.601 1151.85 1219.016 1149.083 C 1215.964 1145.627 1209.971 1142.628 1204.591 1140.592 C 1197.855 1138.04 1191.009 1136.025 1186.382 1132.358 C 1181.491 1129.729 1178.206 1124.643 1181.206 1117.924 C 1181.987 1116.176 1182.334 1114.418 1182.311 1112.745 L 1182.29 1112.256 C 1182.283 1111.915 1182.237 1111.609 1182.195 1111.294 C 1182.158 1111.05 1182.119 1110.81 1182.066 1110.571 L 1181.957 1110.153 L 1181.827 1109.681 C 1180.594 1105.486 1174.056 1104.303 1171.725 1104.095 C 1166.445 1103.616 1163.032 1102.169 1160.227 1101.272 C 1162.483 1102.459 1164.754 1104.041 1167.643 1105.217 C 1169.473 1105.969 1172.098 1106.421 1174.311 1107.164 L 1174.327 1107.161 C 1174.327 1107.161 1178.41 1107.996 1179.531 1110.866 C 1180.655 1113.734 1180.004 1116.244 1179.531 1117.854 L 1179.36 1118.319 C 1178.952 1119.579 1178.495 1120.789 1178.4 1122.042 C 1178.018 1126.983 1181.018 1129.558 1182.61 1133.691 C 1185.481 1136.446 1189.568 1139.3 1195.237 1141.882 C 1200.33 1144.21 1206.426 1145.617 1210.202 1147.922 C 1212.392 1149.256 1216.374 1152.481 1216.284 1154.828 C 1216.215 1156.623 1212.932 1159.075 1211.606 1160.863 C 1210.663 1162.136 1210.191 1163.826 1209.347 1165.03 C 1208.608 1166.203 1207.665 1166.96 1206.576 1166.96 C 1205.158 1166.96 1201.924 1167.514 1204.053 1167.675 C 1206.18 1167.834 1211.701 1170.464 1211.701 1170.464 L 1211.697 1170.471 C 1219.157 1173.586 1224.171 1179.366 1221.428 1187.607 C 1219.132 1194.508 1213.849 1200.286 1213.478 1207.879 C 1213.084 1215.957 1216.75 1222.611 1217.218 1229.017 C 1218.01 1239.796 1216.479 1247.223 1214.414 1255.329 C 1213.446 1259.117 1212.932 1262.85 1212.077 1266.538 C 1208.434 1282.246 1199.039 1289.049 1186.352 1296.304 C 1180.852 1299.45 1174.948 1305.251 1169.047 1307.085 C 1168.099 1307.38 1166.635 1306.931 1165.771 1307.085 C 1160.335 1308.079 1155.444 1310.799 1149.87 1311.83 C 1144.62 1312.804 1139.115 1312.339 1132.885 1313.931 C 1129.722 1315.071 1125.672 1316.778 1123.307 1317.794 C 1119.648 1319.475 1116.064 1321.228 1112.487 1322.997 L 1100.61 1329.852 C 1100.61 1329.852 1093.988 1333.724 1101.321 1330.859 C 1107.22 1328.55 1127.496 1318.353 1119.002 1324.341 C 1113.145 1327.314 1109.968 1331.537 1104.788 1335.138 C 1104.788 1335.138 1087.357 1343.872 1084.742 1346.312 C 1081.869 1348.995 1078.356 1347.511 1076.049 1350.138 C 1073.34 1353.228 1070.02 1355.077 1067.652 1355.876 C 1065.289 1356.678 1062.608 1361.934 1058.98 1364.64 C 1055.352 1367.349 1047.47 1366.552 1040.528 1369.581 C 1033.591 1372.608 1026.402 1372.648 1026.402 1372.648 C 1025.712 1372.713 1025.047 1372.755 1024.407 1372.774 C 1024.134 1372.779 1023.879 1372.774 1023.617 1372.774 C 1019.558 1372.797 1016.456 1372 1014.078 1371.117 C 1011.18 1370.039 1010.116 1370.579 1010.767 1370.934 C 1011.416 1371.294 1013.305 1373.075 1013.305 1373.075 C 1005.212 1373.066 1003.001 1367.63 999.276 1363.593 C 1000.969 1363.35 1005.8 1364.542 1003.346 1363.107 C 998.499 1360.763 989.165 1360.597 988.984 1354.962 C 988.843 1350.545 990.854 1351.51 990.854 1351.51 C 994.248 1357.484 1004.73 1358.071 1012.371 1357.987 C 1026.604 1357.816 1036.237 1349.926 1045.565 1345.464 C 1048.589 1343.627 1052.122 1341.213 1052.122 1341.213 L 1052.101 1341.285 C 1055.048 1339.345 1058.023 1337.464 1060.542 1335.122 C 1064.934 1331.044 1067.905 1325.722 1071.769 1321.202 C 1072.219 1320.435 1073.162 1319.496 1074.283 1318.554 C 1075.372 1317.518 1076.544 1316.558 1077.847 1315.714 L 1077.898 1315.819 L 1078.403 1315.476 L 1078.312 1315.284 C 1087.698 1309.904 1096.449 1303.951 1103.828 1296.725 L 1103.879 1296.64 C 1104.936 1295.668 1110.492 1289.405 1113.177 1286.362 C 1116.34 1282.099 1118.62 1276.711 1119.94 1271.287 C 1120.417 1269.324 1120.114 1266.937 1120.874 1264.813 C 1122.051 1261.517 1125.014 1258.584 1126.956 1255.329 C 1128.967 1251.937 1130.297 1248.245 1131.631 1244.543 C 1137.481 1228.295 1144.247 1215.361 1156.886 1206.587 C 1162.977 1202.354 1170.372 1199.629 1174.656 1193.209 C 1171.547 1196.406 1167.495 1198.732 1162.601 1200.281 C 1148.705 1204.904 1139.666 1216.758 1135.123 1224.282 C 1131.634 1230.62 1128.937 1237.683 1126.956 1245.405 C 1126.295 1235.886 1123.972 1228.458 1120.874 1221.248 C 1118.119 1214.84 1115.684 1208.064 1110.584 1204 C 1110.584 1204 1110.388 1204.011 1109.597 1203.528 C 1108.81 1203.056 1122.744 1202.703 1122.744 1202.703 C 1125.183 1202.791 1127.662 1203.142 1130.179 1203.474 C 1130.649 1203.422 1131.228 1203.448 1131.937 1203.577 C 1139.597 1204.942 1147.56 1202.06 1152.518 1198.412 C 1155.092 1196.518 1159.569 1195.002 1163.283 1193.976 C 1163.345 1193.812 1163.707 1193.63 1164.633 1193.447 C 1164.633 1193.447 1170.31 1191.659 1176.341 1189.984 C 1180.425 1188.853 1183.403 1187.988 1185.467 1186.957 C 1186.665 1186.188 1187.805 1185.263 1188.687 1184.155 C 1190.455 1181.953 1190.488 1179.308 1191.964 1175.531 C 1193.43 1171.768 1195.673 1168.839 1195.703 1165.609 C 1195.81 1155.022 1185.886 1146.589 1175.127 1152.234 C 1185.719 1149.476 1193.233 1154.697 1191.964 1164.749 C 1190.397 1177.164 1171.885 1186.368 1160.627 1191.059 C 1156.165 1192.915 1150.938 1195.261 1145.662 1195.801 C 1138.051 1196.579 1131.159 1194.936 1124.616 1195.366 C 1116.224 1195.927 1110.645 1200.41 1103.569 1200.978 C 1097.489 1201.469 1098.314 1197.313 1093.039 1196.839 C 1091.945 1196.212 1088.627 1196.839 1085.328 1196.668 C 1076.204 1199.103 1070.337 1194.887 1062.882 1191.489 C 1057.504 1189.032 1051.765 1186.8 1046.042 1186.312 C 1031.678 1185.08 1022.943 1187.1 1011.201 1185.842 C 1007.89 1185.485 1001.018 1185.064 997.756 1183.828 C 987.598 1179.988 979.821 1181.378 968.785 1181.222 C 960.757 1181.102 953.308 1180.677 948.297 1181.563 C 946.93 1181.813 945.547 1182.171 944.085 1182.428 C 933.33 1184.328 916.949 1185.312 917.429 1194.936 C 918.23 1194.382 918.008 1192.886 919.298 1192.779 C 919.252 1194.551 919.208 1196.317 919.764 1197.528 C 913.511 1197.364 909.822 1193.001 909.945 1188.039 C 910.153 1179.597 923.592 1176.068 932.861 1173.801 C 942.152 1171.534 951.802 1168.881 958.586 1167.762 C 942.338 1170.176 925.151 1171.728 912.748 1177.688 C 912.575 1177.04 912.461 1176.414 912.389 1175.813 C 911.407 1171.258 909.266 1164.268 907.76 1157.476 C 906.027 1149.67 908.703 1135.962 908.703 1135.962 L 908.77 1136.042 C 909.889 1129.077 911.314 1125.971 912.695 1121.808 C 915.635 1112.925 925.132 1110.137 931.782 1109.293 C 926.177 1113.296 922.595 1118.258 920.327 1124.903 C 920.047 1127.261 919.829 1129.472 919.667 1131.424 C 924.701 1115.592 938.742 1109.667 938.742 1109.667 L 943.237 1104.768 L 943.181 1104.99 C 950.931 1097.413 961.174 1091.542 974.19 1091.17 C 980.75 1090.986 988.676 1092.732 988.655 1099.231 C 988.643 1102.908 985.801 1106.03 981.922 1107.753 C 983.062 1107.979 984.107 1107.82 985.052 1107.425 L 989.084 1102.868 C 990.413 1099.535 990.298 1095.328 988.05 1092.79 C 993.982 1087.665 1003.217 1093.414 1002.545 1100.213 C 1004.28 1098.734 1005.339 1095.936 1004.146 1093.72 C 1012.125 1088.981 1016.592 1100.47 1024.625 1097.787 C 1023.867 1095.487 1020.003 1095.955 1018.823 1094.036 C 1029.321 1092.517 1038.531 1096.247 1049.057 1095.403 C 1049.717 1095.983 1050.433 1096.558 1051.191 1097.133 C 1031.501 1099.334 1047.5 1099.323 1047.5 1099.323 C 1050.021 1099.089 1056.079 1098.661 1058.433 1099.086 C 1062.291 1099.788 1064.779 1098.839 1068.185 1097.493 C 1068.268 1097.642 1068.609 1097.63 1068.815 1097.24 C 1070.581 1096.539 1072.617 1095.758 1075.201 1095.053 C 1076.202 1094.91 1077.207 1094.651 1078.185 1094.33 L 1078.607 1094.242 L 1078.664 1094.174 C 1080.015 1093.699 1081.285 1093.131 1082.374 1092.596 C 1092.297 1087.779 1100.524 1076.428 1109 1070.472 C 1123.042 1060.612 1136.339 1072.793 1146.117 1080.7 L 1146.054 1080.793 C 1148.505 1082.483 1151.737 1084.568 1155.259 1086.749 C 1164.46 1090.792 1176.593 1094.33 1183.074 1100.802 C 1188.259 1105.979 1190.022 1112.644 1192.253 1119.562 C 1194.334 1126.018 1198.374 1131.723 1200.645 1138.963 C 1201.083 1138.594 1201.342 1138.035 1201.488 1137.367 C 1201.426 1136.748 1201.326 1136.096 1201.509 1135.694 L 1201.632 1135.806 C 1201.606 1134.541 1201.331 1133.062 1200.902 1131.501 C 1198.974 1127.535 1195.606 1123.019 1196.02 1119.485 C 1196.02 1119.485 1207.971 1125.726 1221.532 1131.926 C 1226.2 1134.062 1230.477 1137.582 1234.208 1141.607 L 1235.297 1141.581 C 1235.167 1141.864 1235.181 1142.27 1235.22 1142.698 C 1241.809 1150.163 1246.483 1159.054 1248.107 1164.193 C 1248.443 1165.249 1248.82 1166.318 1249.228 1167.381 L 1249.231 1167.395 C 1249.743 1168.734 1250.294 1170.059 1250.862 1171.333 L 1250.873 1171.317 C 1251.114 1171.749 1251.265 1172.174 1251.427 1172.605 C 1253.382 1176.886 1255.303 1180.357 1255.841 1181.308 C 1258.141 1184.202 1259.86 1188.165 1261.994 1190.764 C 1261.872 1189.163 1261.79 1187.551 1261.633 1185.961 L 1261.633 1185.961 Z  M 1070.212 1121.201 C 1090.432 1140.087 1092.92 1160.552 1094.473 1166.462 C 1096.002 1172.333 1096.748 1170.347 1096.748 1170.347 C 1097.028 1150.345 1081.347 1125.013 1067.24 1116.681 C 1053.338 1108.456 1017.401 1109.887 1008.96 1109.225 C 1000.654 1108.585 996.502 1119.259 996.502 1119.259 C 996.396 1121.519 998.224 1118.927 998.224 1118.927 C 1003.65 1109.045 1008.42 1110.852 1008.42 1110.852 C 1025.617 1115.928 1028.682 1141.455 1029.398 1147.372 C 1030.109 1153.241 1031.578 1149.42 1031.578 1149.42 C 1033.248 1134.731 1022.651 1116.828 1020.422 1114.526 C 1018.196 1112.245 1020.322 1110.95 1027.426 1112.96 C 1048.816 1119.027 1050.818 1153.645 1052.106 1157.843 C 1053.396 1162.024 1054.198 1158.002 1054.198 1158.002 C 1051.306 1126.172 1039.333 1118.324 1036.142 1113.946 C 1034.817 1112.13 1045.632 1111.857 1050.391 1114.986 C 1077.27 1132.534 1074.253 1166.145 1076.672 1161.346 C 1079.123 1156.45 1069.909 1126.034 1056.96 1115.685 C 1054.369 1113.619 1065.947 1117.228 1070.212 1121.201 L 1070.212 1121.201 Z  M 1119.931 1094.922 C 1125.299 1098.194 1127.857 1099.023 1127.857 1099.023 C 1127.857 1099.023 1124.108 1100.087 1122.403 1102.929 C 1120.695 1105.771 1118.652 1107.958 1112.686 1107.066 C 1106.421 1106.126 1105.274 1107.117 1102.121 1107.636 C 1102.121 1107.636 1103.224 1104.397 1106.21 1102.758 C 1109.192 1101.122 1112.709 1090.518 1119.931 1094.922 Z  M 1120.406 1087.104 C 1122.368 1086.534 1128.703 1087.508 1124.616 1086.671 C 1120.51 1085.512 1117.962 1086.692 1115.265 1088.401 C 1109.065 1092.316 1104.014 1101.307 1097.489 1105.217 C 1094.658 1106.925 1091.889 1106.533 1089.535 1109.536 C 1091.06 1112.614 1092.608 1110.803 1094.684 1111.261 C 1099.285 1112.27 1103.525 1114.075 1107.779 1116.861 C 1112.489 1119.957 1117.591 1125.639 1124.616 1125.062 C 1126.856 1124.882 1130.927 1122.69 1132.567 1121.61 C 1134.615 1120.261 1139.479 1117.043 1138.179 1112.121 C 1137.602 1109.94 1135.03 1109.59 1133.499 1107.806 C 1131.379 1105.327 1131.46 1102.891 1129.762 1100.045 C 1133.464 1100.797 1135.584 1103.015 1139.578 1103.497 C 1133.288 1097.796 1126.038 1092.979 1117.132 1089.691 C 1117.799 1089.308 1118.226 1087.739 1120.406 1087.104 Z  M 971.155 1112.986 C 970.648 1109.204 967.124 1105.846 960.866 1107.806 C 960.866 1107.806 952.775 1109.672 950.572 1124.129 C 950.572 1124.129 950.187 1131.424 952.449 1129.811 C 950.544 1121.047 958.79 1117.076 960.681 1116.185 C 963.34 1114.986 965.539 1115.391 965.706 1117.674 C 965.889 1120.137 963.102 1121.226 962.268 1123.767 C 965.226 1122.08 971.843 1118.127 971.155 1112.986 L 971.155 1112.986 Z  M 1125.997 1144.091 C 1132.331 1143.07 1144.187 1138.645 1148.943 1135.642 C 1154.105 1132.386 1157.942 1119.899 1152.68 1112.986 C 1150.324 1109.891 1144.682 1105.967 1143.325 1105.652 C 1141.777 1106.558 1144.298 1107.383 1144.726 1107.806 C 1146.51 1109.583 1150.491 1112.834 1151.742 1115.571 C 1154.298 1121.168 1153.514 1129.734 1148.934 1132.831 C 1145.848 1134.911 1130.753 1140.602 1124.15 1140.592 C 1105.575 1140.567 1103.689 1119.957 1092.346 1112.986 C 1092.547 1114.956 1093.972 1119.093 1095.594 1121.231 C 1101.973 1129.645 1108.066 1146.989 1125.997 1144.091" fill-rule="evenodd" fill="rgb(64,60,61)"/><path d=" M 1019.664 1332.046 C 1019.766 1333.023 1020.202 1333.963 1020.508 1334.858 C 1020.57 1330.303 1020.76 1323.651 1025.487 1320.851 C 1026.228 1320.417 1026.965 1320.187 1027.693 1320.187 C 1029.548 1320.187 1030.737 1321.508 1031.483 1322.997 C 1031.402 1319.292 1031.93 1315.735 1034.368 1314.052 C 1035.568 1313.213 1036.684 1312.809 1037.753 1312.809 C 1040.813 1312.809 1042.048 1315.999 1042.711 1317.712 C 1042.82 1317.981 1042.91 1318.222 1043.005 1318.439 C 1044.263 1321.342 1047.616 1327.264 1049.184 1328.566 C 1049.805 1328.068 1050.581 1327.421 1050.825 1327.066 C 1050.739 1326.949 1050.595 1326.792 1050.412 1326.575 C 1040.667 1315.198 1043.681 1307.543 1047.933 1303.121 C 1048.237 1302.769 1049.038 1301.988 1050.22 1301.988 C 1051.67 1301.988 1052.803 1303.054 1053.586 1305.141 C 1054.821 1308.436 1059.728 1314.866 1060.664 1315.525 L 1060.894 1315.639 C 1061.373 1315.885 1061.973 1316.191 1062.316 1316.191 L 1062.594 1316.018 C 1062.9 1315.688 1063.062 1315.399 1063.153 1315.181 C 1061.109 1312.69 1054.08 1303.376 1056.682 1295.865 C 1057.066 1294.747 1058.243 1291.344 1061.003 1291.344 C 1063.549 1291.344 1065.259 1294.427 1065.843 1295.654 C 1067.335 1297.573 1071.283 1302.317 1073.382 1303.566 C 1073.901 1303.862 1074.489 1304.021 1075.133 1304.021 C 1076.171 1304.021 1077.07 1303.629 1077.513 1303.365 C 1075.045 1301.485 1070.256 1294.037 1071.795 1287.568 C 1072.476 1284.693 1074.869 1283.405 1076.938 1283.405 C 1077.951 1283.405 1078.85 1283.702 1079.471 1284.249 C 1079.705 1284.452 1080.191 1284.983 1080.847 1285.714 C 1082.67 1287.727 1086.933 1292.459 1089.482 1293.373 C 1089.978 1293.548 1090.43 1293.642 1090.842 1293.642 C 1091.799 1293.642 1092.432 1293.153 1093.043 1292.515 C 1092.874 1292.385 1092.659 1292.23 1092.381 1292.043 C 1091.229 1291.258 1085.485 1285.315 1087.851 1277.88 C 1088.713 1275.162 1090.634 1274.87 1091.419 1274.87 C 1093.261 1274.87 1094.936 1276.235 1095.633 1277.046 C 1096.873 1278.469 1101.834 1282.671 1103.085 1282.76 C 1104.014 1282.594 1103.606 1282.127 1105.01 1280.336 C 1106.168 1277.649 1102.582 1277.513 1099.185 1276.412 C 1097.329 1275.812 1093.201 1271.301 1089.477 1273.103 C 1085.757 1274.9 1049.573 1299.672 1065.535 1280.049 C 1072.251 1271.794 1080.984 1268.281 1080.337 1266.154 C 1079.35 1262.922 1069.17 1262.721 1066.262 1260.592 C 1064.749 1259.486 1063.445 1261.852 1062.539 1264.028 C 1053.501 1299.772 1021.812 1318.675 1018.798 1320.699 C 1018.798 1320.699 1010.469 1325.85 1012.651 1325.766 C 1014.836 1325.687 1018.911 1324.916 1019.664 1332.046" fill="rgb(93,128,47)"/><path d=" M 1092.387 1229.335 C 1077.905 1234.007 1064.798 1231.994 1064.798 1231.994 C 1059.659 1231.873 1059.242 1225.558 1058.48 1220.313 C 1057.701 1214.938 1063.593 1225.806 1070.803 1227.437 C 1077.668 1229.012 1080.256 1228.505 1079.561 1223.139 C 1078.817 1217.516 1086.002 1223.992 1090.339 1224.808 C 1090.339 1224.808 1090.872 1225.153 1093.12 1225.032 C 1095.362 1224.908 1099.487 1226.647 1092.387 1229.335" fill="rgb(93,128,47)"/></g></g></g></svg>