<?xml version="1.0" encoding="UTF-8" standalone="no"?><!-- Generator: Gravit.io --><svg xmlns="http://www.w3.org/2000/svg" xmlns:xlink="http://www.w3.org/1999/xlink" style="isolation:isolate" viewBox="801 235 512 512" width="512pt" height="512pt"><defs><clipPath id="_clipPath_BchaJKNrMqtlwTJPQkiOViSmy7TszxlA"><rect x="801" y="235" width="512" height="512"/></clipPath></defs><g clip-path="url(#_clipPath_BchaJKNrMqtlwTJPQkiOViSmy7TszxlA)"><g><path d="M 851 235 L 1263 235 C 1290.596 235 1313 257.404 1313 285 L 1313 697 C 1313 724.596 1290.596 747 1263 747 L 851 747 C 823.404 747 801 724.596 801 697 L 801 285 C 801 257.404 823.404 235 851 235 Z" style="stroke:none;fill:#F1DD35;stroke-miterlimit:10;"/><path d="M 851 235 L 1263 235 C 1290.596 235 1313 257.404 1313 285 L 1313 697 C 1313 724.596 1290.596 747 1263 747 L 851 747 C 823.404 747 801 724.596 801 697 L 801 285 C 801 257.404 823.404 235 851 235 Z" style="stroke:none;fill:#F1DD35;stroke-miterlimit:10;"/><path d=" M 1117.939 642.424 L 1117.939 692.485 C 1126.077 696.657 1135.702 699.785 1146.814 701.871 C 1157.926 703.957 1169.637 705 1181.949 705 C 1193.948 705 1205.346 703.853 1216.145 701.558 C 1226.944 699.264 1236.413 695.483 1244.551 690.216 C 1252.689 684.95 1259.132 678.066 1263.879 669.566 C 1268.626 661.066 1271 650.559 1271 638.044 C 1271 628.97 1269.644 621.018 1266.931 614.187 C 1264.218 607.356 1260.306 601.281 1255.193 595.962 C 1250.081 590.643 1243.951 585.871 1236.804 581.647 C 1229.657 577.423 1221.597 573.434 1212.624 569.68 C 1206.051 566.968 1200.156 564.335 1194.939 561.78 C 1189.722 559.224 1185.288 556.617 1181.636 553.958 C 1177.984 551.298 1175.167 548.482 1173.185 545.51 C 1171.203 542.537 1170.211 539.174 1170.211 535.419 C 1170.211 531.978 1171.098 528.875 1172.872 526.111 C 1174.646 523.347 1177.15 520.975 1180.384 518.993 C 1183.619 517.012 1187.583 515.473 1192.278 514.378 C 1196.974 513.283 1202.19 512.736 1207.929 512.736 C 1212.102 512.736 1216.51 513.049 1221.153 513.674 C 1225.796 514.3 1230.465 515.265 1235.161 516.568 C 1239.856 517.872 1244.42 519.515 1248.855 521.496 C 1253.289 523.478 1257.384 525.772 1261.14 528.38 L 1261.14 481.604 C 1253.524 478.684 1245.203 476.52 1236.178 475.112 C 1227.153 473.704 1216.797 473 1205.112 473 C 1193.217 473 1181.949 474.278 1171.307 476.833 C 1160.665 479.388 1151.301 483.377 1143.214 488.8 C 1135.128 494.224 1128.738 501.133 1124.043 509.529 C 1119.348 517.924 1117 527.962 1117 539.643 C 1117 554.557 1121.304 567.281 1129.912 577.815 C 1138.519 588.348 1151.587 597.265 1169.116 604.566 C 1176.002 607.382 1182.419 610.145 1188.366 612.857 C 1194.313 615.569 1199.452 618.385 1203.781 621.305 C 1208.111 624.225 1211.528 627.406 1214.033 630.848 C 1216.537 634.289 1217.789 638.2 1217.789 642.581 C 1217.789 645.814 1217.006 648.812 1215.441 651.576 C 1213.876 654.34 1211.502 656.738 1208.32 658.772 C 1205.138 660.806 1201.173 662.396 1196.426 663.543 C 1191.678 664.691 1186.123 665.264 1179.758 665.264 C 1168.907 665.264 1158.161 663.361 1147.518 659.554 C 1136.876 655.748 1127.016 650.038 1117.939 642.424 L 1117.939 642.424 Z " fill-rule="evenodd" fill="rgb(0,0,0)"/><path d=" M 966.856 639.607 C 974.74 652.748 981.913 663.859 999.157 663.859 C 1015.647 663.859 1026.049 657.798 1026.049 634.231 L 1026.049 478.902 L 1076.239 478.902 L 1076.239 634.868 C 1076.239 683.691 1045.769 705.912 1001.294 705.912 C 961.108 705.912 937.835 686.375 926 662.844 L 966.856 639.607 Z " fill="rgb(0,0,0)"/></g></g></svg>