<?xml version="1.0" encoding="UTF-8" standalone="no"?><!-- Generator: Gravit.io --><svg xmlns="http://www.w3.org/2000/svg" xmlns:xlink="http://www.w3.org/1999/xlink" style="isolation:isolate" viewBox="660.44 298.636 128.946 145.364" width="128.946pt" height="145.364pt"><defs><clipPath id="_clipPath_O5Tg2TZc1plgdRWT5fhQJuOOLXfk8Yg5"><rect x="660.44" y="298.636" width="128.946" height="145.364"/></clipPath></defs><g clip-path="url(#_clipPath_O5Tg2TZc1plgdRWT5fhQJuOOLXfk8Yg5)"><g><path d=" M 724.938 444 C 722.991 444 721.058 443.489 719.351 442.507 L 701.569 431.979 C 698.913 430.493 700.209 429.968 701.085 429.665 C 704.626 428.425 705.345 428.145 709.125 425.999 C 709.522 425.772 710.042 425.852 710.449 426.092 L 724.11 434.199 C 724.603 434.465 725.303 434.465 725.761 434.199 L 779.027 403.452 C 779.521 403.172 779.841 402.599 779.841 402.012 L 779.841 340.546 C 779.841 339.932 779.521 339.386 779.017 339.079 L 725.771 308.359 C 725.278 308.066 724.625 308.066 724.131 308.359 L 670.897 339.079 C 670.381 339.372 670.053 339.946 670.053 340.532 L 670.053 401.999 C 670.053 402.585 670.373 403.145 670.88 403.425 L 685.466 411.852 C 693.386 415.812 698.226 411.145 698.226 406.452 L 698.226 345.786 C 698.226 344.919 698.906 344.252 699.773 344.252 L 706.519 344.252 C 707.359 344.252 708.053 344.919 708.053 345.786 L 708.053 406.479 C 708.053 417.039 702.293 423.105 692.28 423.105 C 689.2 423.105 686.773 423.105 680 419.772 L 666.026 411.719 C 662.573 409.719 660.44 405.985 660.44 401.999 L 660.44 340.532 C 660.44 336.532 662.573 332.799 666.026 330.826 L 719.346 300.066 C 722.719 298.159 727.199 298.159 730.546 300.066 L 783.799 330.839 C 787.239 332.826 789.386 336.546 789.386 340.546 L 789.386 402.012 C 789.386 405.999 787.239 409.719 783.799 411.719 L 730.546 442.479 C 728.839 443.465 726.906 443.972 724.933 443.972" fill="rgb(104,159,99)"/><path d=" M 741.391 401.645 C 718.085 401.645 713.198 390.947 713.198 381.973 C 713.198 381.12 713.886 380.44 714.741 380.44 L 721.621 380.44 C 722.381 380.44 723.021 380.993 723.141 381.744 C 724.181 388.755 727.274 392.291 741.367 392.291 C 752.594 392.291 757.367 389.755 757.367 383.801 C 757.367 380.375 756.007 377.828 738.567 376.121 C 723.981 374.681 714.967 371.468 714.967 359.802 C 714.967 349.055 724.034 342.655 739.221 342.655 C 756.274 342.655 764.727 348.575 765.794 361.295 C 765.834 361.735 765.674 362.161 765.381 362.481 C 765.087 362.788 764.674 362.975 764.247 362.975 L 757.327 362.975 C 756.607 362.975 755.981 362.468 755.834 361.775 C 754.167 354.402 750.141 352.042 739.194 352.042 C 726.941 352.042 725.514 356.308 725.514 359.508 C 725.514 363.388 727.194 364.521 743.727 366.708 C 760.101 368.881 767.874 371.948 767.874 383.455 C 767.874 395.055 758.194 401.708 741.314 401.708" fill="rgb(104,159,99)"/></g></g></svg>